<svg width="183" height="123" viewBox="0 0 183 123" fill="none" xmlns="http://www.w3.org/2000/svg">
<path d="M10.3 76.7293C12.8 100.729 32 120.029 53.2 119.929C74.4 119.729 89.5 100.129 87 76.1293C84.5 52.1293 65.3 32.8293 44.1 32.9293C22.9 33.0293 7.80002 52.6293 10.3 76.7293Z" fill="white"/>
<path d="M53 122.629C30.6 122.629 10.3 102.229 7.60001 77.0293C6.20001 63.7293 10 51.0293 17.9 42.1293C24.7 34.5293 34 30.3293 44.1 30.2293C44.2 30.2293 44.3 30.2293 44.4 30.2293C66.8 30.2293 87.1 50.6293 89.8 75.8293C91.2 89.1293 87.4 101.829 79.5 110.729C72.7 118.329 63.4 122.529 53.3 122.629C53.2 122.629 53.1 122.629 53 122.629ZM44.4 35.6293C44.3 35.6293 44.2 35.6293 44.1 35.6293C35.6 35.7293 27.7 39.2293 22 45.7293C15.1 53.5293 11.8 64.6293 13 76.4293C15.4 98.9293 33.2 117.129 52.9 117.129C53 117.129 53.1 117.129 53.2 117.129C61.7 117.029 69.6 113.529 75.3 107.029C82.2 99.2293 85.5 88.1293 84.3 76.3293C82 53.8293 64.1 35.6293 44.4 35.6293Z" fill="#231F20"/>
<path d="M63.3 113.829C72.7441 113.829 80.4 105.278 80.4 94.7293C80.4 84.1806 72.7441 75.6293 63.3 75.6293C53.8559 75.6293 46.2 84.1806 46.2 94.7293C46.2 105.278 53.8559 113.829 63.3 113.829Z" fill="#231F20"/>
<path d="M56.2 94.8293C61.1153 94.8293 65.1 90.8446 65.1 85.9293C65.1 81.014 61.1153 77.0293 56.2 77.0293C51.2847 77.0293 47.3 81.014 47.3 85.9293C47.3 90.8446 51.2847 94.8293 56.2 94.8293Z" fill="white"/>
<path d="M102.5 75.9293C105 99.9293 124.2 119.229 145.4 119.129C166.6 118.929 181.7 99.3293 179.2 75.3293C176.7 51.3293 157.5 32.0293 136.3 32.1293C115.1 32.3293 99.9 51.9293 102.5 75.9293Z" fill="white"/>
<path d="M145.1 121.829C122.7 121.829 102.4 101.429 99.7 76.2293C98.3 62.9293 102.1 50.2293 110 41.3293C116.8 33.7293 126.1 29.5293 136.2 29.4293C136.3 29.4293 136.4 29.4293 136.5 29.4293C158.9 29.4293 179.2 49.8293 181.9 75.0293C183.3 88.3293 179.5 101.029 171.6 109.929C164.8 117.529 155.5 121.729 145.4 121.829C145.3 121.829 145.2 121.829 145.1 121.829ZM105.2 75.6293C107.6 98.2293 125.6 116.429 145.4 116.329C153.9 116.229 161.8 112.729 167.5 106.229C174.4 98.4293 177.7 87.3293 176.5 75.5293C174.1 53.0293 156.3 34.8293 136.6 34.8293C136.5 34.8293 136.4 34.8293 136.3 34.8293C127.8 34.9293 119.9 38.4293 114.2 44.9293C107.2 52.7293 104 63.9293 105.2 75.6293Z" fill="#231F20"/>
<path d="M155.6 113.829C165.044 113.829 172.7 105.278 172.7 94.7293C172.7 84.1806 165.044 75.6293 155.6 75.6293C146.156 75.6293 138.5 84.1806 138.5 94.7293C138.5 105.278 146.156 113.829 155.6 113.829Z" fill="#231F20"/>
<path d="M149.7 94.8293C154.615 94.8293 158.6 90.8446 158.6 85.9293C158.6 81.014 154.615 77.0293 149.7 77.0293C144.785 77.0293 140.8 81.014 140.8 85.9293C140.8 90.8446 144.785 94.8293 149.7 94.8293Z" fill="white"/>
<path d="M0 42.0293C0 42.0293 16.9 7.52929 49.4 16.0293C49.4 16.0293 44.7 7.22929 41.9 5.02929C39.2 2.82929 7.2 -0.470703 0 42.0293Z" fill="#231F20"/>
<path d="M152.1 17.3293C152.1 17.3293 119 -2.17071 96.5 22.9293C96.5 22.9293 95.6 13.0293 96.7 9.62929C97.8 6.22929 122.6 -14.1707 152.1 17.3293Z" fill="#231F20"/>
</svg>
