<svg width="189" height="121" viewBox="0 0 189 121" fill="none" xmlns="http://www.w3.org/2000/svg">
<path d="M172.3 74.8C169.8 98.8 150.6 118.1 129.4 118C108.2 117.8 93.1 98.2 95.6 74.2C98.1 50.2 117.3 30.9 138.5 31C159.6 31.2 174.8 50.8 172.3 74.8Z" fill="white"/>
<path d="M129.6 120.7C129.5 120.7 129.4 120.7 129.3 120.7C119.2 120.6 109.9 116.4 103.1 108.8C95.1 99.9 91.4 87.2 92.8 73.9C95.4 48.7 115.8 28.3 138.2 28.3C138.3 28.3 138.4 28.3 138.5 28.3C148.6 28.4 157.9 32.6 164.7 40.2C172.7 49.1 176.4 61.8 175 75.1C172.3 100.3 152 120.7 129.6 120.7ZM138.2 33.8C118.5 33.8 100.6 52 98.3 74.5C97.1 86.2 100.3 97.4 107.3 105.2C113 111.6 120.9 115.2 129.4 115.3C129.5 115.3 129.6 115.3 129.7 115.3C149.4 115.3 167.3 97.1 169.6 74.6C170.8 62.9 167.6 51.7 160.6 43.9C154.9 37.5 147 33.9 138.5 33.8C138.4 33.8 138.3 33.8 138.2 33.8Z" fill="#231F20"/>
<path d="M119.3 112C128.744 112 136.4 103.449 136.4 92.9C136.4 82.3513 128.744 73.8 119.3 73.8C109.856 73.8 102.2 82.3513 102.2 92.9C102.2 103.449 109.856 112 119.3 112Z" fill="#231F20"/>
<path d="M126.4 92.9C131.315 92.9 135.3 88.9153 135.3 84C135.3 79.0847 131.315 75.1 126.4 75.1C121.485 75.1 117.5 79.0847 117.5 84C117.5 88.9153 121.485 92.9 126.4 92.9Z" fill="white"/>
<path d="M80.1 74.1C77.6 98.1 58.4 117.4 37.2 117.3C16 117.1 0.9 97.5 3.4 73.5C5.9 49.5 25.1 30.2 46.3 30.3C67.5 30.4 82.6 50 80.1 74.1Z" fill="white"/>
<path d="M37.5 120C37.4 120 37.3 120 37.2 120C27.1 119.9 17.8 115.7 11 108.1C2.99999 99.2 -0.699993 86.5 0.700007 73.2C3.40001 47.9 23.8 27.5 46.4 27.6C56.5 27.7 65.8 31.9 72.6 39.5C80.6 48.4 84.3 61.1 82.9 74.4C80.2 99.6 59.9 120 37.5 120ZM46 33C26.3 33 8.4 51.2 6.1 73.7C4.9 85.4 8.1 96.6 15.1 104.4C20.8 110.8 28.7 114.4 37.2 114.5C37.3 114.5 37.4 114.5 37.5 114.5C57.2 114.5 75.1 96.3 77.4 73.8C78.6 62.1 75.4 50.9 68.4 43.1C62.7 36.7 54.8 33.1 46.3 33C46.2 33 46.1 33 46 33Z" fill="#231F20"/>
<path d="M27 112C36.4441 112 44.1 103.449 44.1 92.9C44.1 82.3513 36.4441 73.8 27 73.8C17.5559 73.8 9.89999 82.3513 9.89999 92.9C9.89999 103.449 17.5559 112 27 112Z" fill="#231F20"/>
<path d="M32.9 92.9C37.8153 92.9 41.8 88.9153 41.8 84C41.8 79.0847 37.8153 75.1 32.9 75.1C27.9847 75.1 24 79.0847 24 84C24 88.9153 27.9847 92.9 32.9 92.9Z" fill="white"/>
<path d="M188.5 42C188.5 42 171.6 7.49999 139.1 16C139.1 16 143.8 7.19999 146.6 4.99999C149.4 2.79999 181.4 -0.500008 188.5 42Z" fill="#231F20"/>
<path d="M36.5 17.4C36.5 17.4 69.6 -2.1 92.1 23C92.1 23 93 13.1 91.9 9.7C90.8 6.3 65.9 -14.1 36.5 17.4Z" fill="#231F20"/>
</svg>
