<svg width="170" height="127" viewBox="0 0 170 127" fill="none" xmlns="http://www.w3.org/2000/svg">
<path d="M129.8 123.9C150.4 123.9 167.1 103.842 167.1 79.1C167.1 54.3576 150.4 34.3 129.8 34.3C109.2 34.3 92.4999 54.3576 92.4999 79.1C92.4999 103.842 109.2 123.9 129.8 123.9Z" fill="white"/>
<path d="M129.8 126.6C107.7 126.6 89.7999 105.3 89.7999 79.1C89.7999 52.9 107.8 31.6 129.8 31.6C151.9 31.6 169.8 52.9 169.8 79.1C169.8 105.3 151.9 126.6 129.8 126.6ZM129.8 37C110.8 37 95.2999 55.9 95.2999 79C95.2999 102.2 110.8 121 129.8 121C148.8 121 164.3 102.1 164.3 79C164.3 55.9 148.8 37 129.8 37Z" fill="#231F20"/>
<path d="M129.8 122.2C138.968 122.2 146.4 113.29 146.4 102.3C146.4 91.3095 138.968 82.4 129.8 82.4C120.632 82.4 113.2 91.3095 113.2 102.3C113.2 113.29 120.632 122.2 129.8 122.2Z" fill="#231F20"/>
<path d="M124.7 102.4C129.615 102.4 133.6 98.4153 133.6 93.5C133.6 88.5847 129.615 84.6 124.7 84.6C119.785 84.6 115.8 88.5847 115.8 93.5C115.8 98.4153 119.785 102.4 124.7 102.4Z" fill="white"/>
<path d="M40.2999 123.9C60.9001 123.9 77.5999 103.842 77.5999 79.1C77.5999 54.3576 60.9001 34.3 40.2999 34.3C19.6997 34.3 2.99994 54.3576 2.99994 79.1C2.99994 103.842 19.6997 123.9 40.2999 123.9Z" fill="white"/>
<path d="M40.2999 126.6C18.1999 126.6 0.299927 105.3 0.299927 79.1C0.299927 52.9 18.2999 31.6 40.2999 31.6C62.3999 31.6 80.2999 52.9 80.2999 79.1C80.2999 105.3 62.2999 126.6 40.2999 126.6ZM40.2999 37C21.2999 37 5.79993 55.9 5.79993 79C5.79993 102.2 21.2999 121 40.2999 121C59.2999 121 74.7999 102.1 74.7999 79C74.7999 55.9 59.2999 37 40.2999 37Z" fill="#231F20"/>
<path d="M40.2999 122.2C49.4679 122.2 56.9 113.29 56.9 102.3C56.9 91.3095 49.4679 82.4 40.2999 82.4C31.132 82.4 23.7 91.3095 23.7 102.3C23.7 113.29 31.132 122.2 40.2999 122.2Z" fill="#231F20"/>
<path d="M49.9 100.7C54.8153 100.7 58.7999 96.7153 58.7999 91.8C58.7999 86.8847 54.8153 82.9 49.9 82.9C44.9846 82.9 40.9999 86.8847 40.9999 91.8C40.9999 96.7153 44.9846 100.7 49.9 100.7Z" fill="white"/>
<path d="M6.19995 38.3C6.19995 38.3 23.0999 3.80001 55.5999 12.3C55.5999 12.3 50.8999 3.50001 48.0999 1.30001C45.2999 -0.899989 13.3 -4.19999 6.19995 38.3Z" fill="#231F20"/>
<path d="M163.7 38.3C163.7 38.3 146.8 3.80001 114.3 12.3C114.3 12.3 119 3.50001 121.8 1.30001C124.6 -0.899989 156.6 -4.19999 163.7 38.3Z" fill="#231F20"/>
</svg>
