<svg width="164" height="127" viewBox="0 0 164 127" fill="none" xmlns="http://www.w3.org/2000/svg">
<path d="M129.885 118.46C148.388 113.914 158.954 92.1849 153.486 69.9275C148.017 47.67 128.584 33.3123 110.081 37.8585C91.5775 42.4048 81.011 64.1334 86.4797 86.3909C91.9483 108.648 111.381 123.006 129.885 118.46Z" fill="white"/>
<path d="M122.9 122.1C115.6 122.1 108.2 119.6 101.7 114.7C93 108.3 86.6001 98.5 83.8001 87.1C81.0001 75.7 82.1001 64.1001 86.8001 54.4001C91.6001 44.5001 99.7 37.7 109.4 35.3C119.2 32.9 129.4 35.2001 138.3 41.7001C147 48.1001 153.4 57.9 156.2 69.3C162 93 150.5 116.2 130.6 121.1C128 121.8 125.5 122.1 122.9 122.1ZM117.1 39.9001C115 39.9001 112.9 40.2001 110.8 40.7001C102.6 42.7001 95.9001 48.4001 91.8001 56.9001C87.6001 65.5001 86.7 75.8001 89.2 85.9001C91.7 96.0001 97.3 104.7 105 110.4C112.5 116 121.2 117.9 129.3 115.9C146.3 111.7 156 91.4001 150.9 70.7001C148.4 60.6001 142.8 51.9001 135.1 46.2001C129.5 42.0001 123.3 39.9001 117.1 39.9001Z" fill="#231F20"/>
<path d="M108.877 99.1133C117.136 97.084 121.866 87.4389 119.441 77.5706C117.017 67.7022 108.356 61.3475 100.096 63.3768C91.8368 65.4062 87.1068 75.0511 89.5315 84.9195C91.9561 94.7878 100.617 101.143 108.877 99.1133Z" fill="#231F20"/>
<path d="M104.352 77.9101C108.75 76.8295 111.439 72.3884 110.359 67.9905C109.278 63.5927 104.837 60.9035 100.439 61.984C96.0412 63.0646 93.3519 67.5057 94.4325 71.9036C95.513 76.3014 99.9542 78.9906 104.352 77.9101Z" fill="white"/>
<path d="M80.1934 80.7905C83.1847 56.2288 69.0319 34.2985 48.582 31.808C28.1322 29.3174 9.12934 47.2097 6.13799 71.7714C3.14664 96.3331 17.2995 118.263 37.7494 120.754C58.1992 123.244 77.202 105.352 80.1934 80.7905Z" fill="white"/>
<path d="M41.5 123.7C40.1 123.7 38.7 123.6 37.3 123.4C26.6 122.1 17.1999 115.9 10.6999 106C4.39991 96.2 1.70001 83.9 3.30001 71.4C4.80001 58.9 10.3 47.6 18.8 39.6C27.4 31.5 38.1 27.7 48.8 29C70.7 31.7 85.9 55 82.8 81C81.3 93.5 75.8 104.8 67.3 112.8C59.8 120 50.8 123.7 41.5 123.7ZM44.6999 34.4C36.7999 34.4 29.0999 37.6 22.5999 43.7C15.0999 50.8 10.1 60.9 8.80001 72.1C7.40001 83.3 9.79999 94.3 15.4 103C20.9 111.5 28.9 116.9 38 118C47.1 119.1 56.1 115.9 63.5 108.9C71 101.8 76 91.7 77.3 80.5C80.1 57.5 66.9999 36.9 48.0999 34.6C46.9999 34.4 45.7999 34.4 44.6999 34.4Z" fill="#231F20"/>
<path d="M75.4779 68.4278C76.8067 57.5175 70.5061 47.7745 61.4051 46.6661C52.3041 45.5577 43.849 53.5036 42.5203 64.4139C41.1915 75.3241 47.4922 85.0672 56.5932 86.1756C65.6942 87.284 74.1492 79.338 75.4779 68.4278Z" fill="#231F20"/>
<path d="M70.1148 55.184C70.7091 50.3045 67.2353 45.8672 62.3558 45.2729C57.4764 44.6786 53.039 48.1525 52.4448 53.0319C51.8505 57.9114 55.3244 62.3486 60.2038 62.9429C65.0833 63.5372 69.5206 60.0634 70.1148 55.184Z" fill="white"/>
<path d="M7 23C7 23 41.1 23.8 59.1 0.799988C59.1 0.799988 49.3 39.6 7 23Z" fill="#231F20"/>
<path d="M97.3 20.2C97.3 20.2 129.5 29.6 154.6 20.2C154.6 20.2 136.7 31.9 120.7 31.3C104.8 30.6 97.3 20.2 97.3 20.2Z" fill="#231F20"/>
</svg>
