<svg width="178" height="117" viewBox="0 0 178 117" fill="none" xmlns="http://www.w3.org/2000/svg">
<path d="M3.69995 65.9C3.59995 67 3.59998 68.1 3.59998 69.2C3.59998 93.9 20.3 114 40.9 114C61.5 114 78.2 94 78.2 69.2C78.2 68 78.1 66.8 78.1 65.7C65.6 65.8 27.6 66 3.69995 65.9Z" fill="white"/>
<path d="M40.8 116.7C18.7 116.7 0.800049 95.4 0.800049 69.2C0.800049 68.2 0.800024 67.1 0.900024 65.8L1.09998 63.2H3.69995C27.8 63.2 66.7 63 78 62.9H80.6L80.8 65.5C80.9 66.9 80.9 68.1 80.9 69.2C80.8 95.4 62.9 116.7 40.8 116.7ZM6.30005 68.7C6.30005 68.9 6.30005 69.1 6.30005 69.2C6.30005 92.4 21.8 111.2 40.8 111.2C59.8 111.2 75.3 92.3 75.3 69.2C75.3 68.9 75.3 68.7 75.3 68.4C62 68.5 28.8 68.7 6.30005 68.7Z" fill="#231F20"/>
<path d="M24.5 65.7C24.3 66.8 24.2 68 24.2 69.2C24.2 80.2 31.6 89.1 40.8 89.1C50 89.1 57.4 80.2 57.4 69.2C57.4 68 57.3 66.9 57.1 65.7H24.5Z" fill="#231F20"/>
<path d="M52 79.8C54.8167 79.8 57.1 77.5167 57.1 74.7C57.1 71.8834 54.8167 69.6 52 69.6C49.1833 69.6 46.9 71.8834 46.9 74.7C46.9 77.5167 49.1833 79.8 52 79.8Z" fill="white"/>
<path d="M100.7 65.9C100.6 67 100.6 68.1 100.6 69.2C100.6 93.9 117.3 114 137.9 114C158.5 114 175.2 94 175.2 69.2C175.2 68 175.1 66.8 175.1 65.7C162.6 65.8 124.6 66 100.7 65.9Z" fill="white"/>
<path d="M137.9 116.7C115.8 116.7 97.9 95.4 97.9 69.2C97.9 68.2 97.9 67.1 98 65.8L98.2 63.2H100.8C124.9 63.2 163.8 63 175.1 62.9H177.7L177.9 65.5C178 66.9 178 68.1 178 69.2C177.9 95.4 159.9 116.7 137.9 116.7ZM103.3 68.7C103.3 68.9 103.3 69.1 103.3 69.2C103.3 92.4 118.8 111.2 137.8 111.2C156.8 111.2 172.3 92.3 172.3 69.2C172.3 68.9 172.3 68.7 172.3 68.4C159.1 68.5 125.8 68.7 103.3 68.7Z" fill="#231F20"/>
<path d="M121.5 65.7C121.3 66.8 121.2 68 121.2 69.2C121.2 80.2 128.6 89.1 137.8 89.1C147 89.1 154.4 80.2 154.4 69.2C154.4 68 154.3 66.9 154.1 65.7H121.5Z" fill="#231F20"/>
<path d="M149 79.8C151.817 79.8 154.1 77.5167 154.1 74.7C154.1 71.8834 151.817 69.6 149 69.6C146.183 69.6 143.9 71.8834 143.9 74.7C143.9 77.5167 146.183 79.8 149 79.8Z" fill="white"/>
<path d="M169 17.6C169 17.6 135.6 -1.40001 113.5 23.9C113.5 23.9 112.5 14 113.5 10.6C114.5 7.3 139.2 -13.5 169 17.6Z" fill="#231F20"/>
<path d="M11.9 17.6C11.9 17.6 45.3 -1.40001 67.4 23.9C67.4 23.9 68.4 14 67.4 10.6C66.4 7.3 41.7 -13.5 11.9 17.6Z" fill="#231F20"/>
</svg>
