<svg width="183" height="131" viewBox="0 0 183 131" fill="none" xmlns="http://www.w3.org/2000/svg">
<path d="M60.7009 119.885C80.5121 114.238 91.0745 90.3713 84.2926 66.5766C77.5107 42.7819 55.9527 28.0698 36.1415 33.7164C16.3303 39.3629 5.76788 63.2297 12.5498 87.0244C19.3316 110.819 40.8896 125.531 60.7009 119.885Z" fill="white"/>
<path d="M52.1 123.7C33.8 123.7 16.1 109.2 9.89999 87.7C6.39999 75.6 7.09999 63 11.9 52.4C16.7 41.6 25 34 35.4 31C45.8 28 56.9 30.1 66.6 36.8C76.2 43.4 83.4 53.6 86.9 65.8C90.4 77.9 89.7 90.5 84.9 101.1C80.1 111.9 71.8 119.5 61.4 122.5C58.4 123.3 55.2 123.7 52.1 123.7ZM44.8 35.2C42.1 35.2 39.5 35.6 36.9 36.3C28.1 38.8 21 45.2999 16.9 54.5999C12.7 64.0999 12.1 75.3 15.2 86.2C21.6 108.5 41.6 122.4 59.9 117.2C68.7 114.7 75.8 108.2 79.9 98.9C84.1 89.4 84.7 78.2 81.6 67.3C78.5 56.4 72.1 47.2 63.5 41.4C57.7 37.3 51.2 35.2 44.8 35.2Z" fill="#231F20"/>
<path d="M51.9702 89.7247C60.787 87.2117 65.4923 76.6063 62.4798 66.0368C59.4673 55.4672 49.8778 48.9361 41.061 51.449C32.2442 53.962 27.5389 64.5673 30.5514 75.1369C33.5639 85.7064 43.1534 92.2376 51.9702 89.7247Z" fill="#231F20"/>
<path d="M46.2409 66.9474C50.9679 65.6001 53.7078 60.6759 52.3605 55.9488C51.0132 51.2218 46.089 48.4819 41.3619 49.8292C36.6348 51.1765 33.895 56.1008 35.2423 60.8278C36.5896 65.5549 41.5138 68.2947 46.2409 66.9474Z" fill="white"/>
<path d="M15.6 94.9C24.4 113.9 43.3 124.8 60.7 119.8C77.2 115.1 87.3 97.8 86.3 78.4C54.3 77.3 29.9 87 15.6 94.9Z" fill="white"/>
<path d="M52.1 123.7C36.5 123.7 21 113.2 13.1 96L12 93.7L14.2 92.5C29.2 84.2 54 74.5999 86.3 75.5999L88.8 75.7L88.9 78.2C90 99.3 78.7 117.5 61.4 122.4C58.4 123.3 55.3 123.7 52.1 123.7ZM19.2 96.0999C28 112.7 44.8 121.5 60 117.2C74.2 113.2 83.6 98.4999 83.6 81.0999C55.4 80.5999 33.4 88.6999 19.2 96.0999Z" fill="#231F20"/>
<path d="M170.4 86.9703C177.182 63.1756 166.619 39.3087 146.808 33.6622C126.997 28.0157 105.439 42.7277 98.6569 66.5224C91.875 90.3172 102.437 114.184 122.249 119.831C142.06 125.477 163.618 110.765 170.4 86.9703Z" fill="white"/>
<path d="M130.8 123.7C127.7 123.7 124.5 123.3 121.5 122.4C111.1 119.4 102.8 111.9 98 101C93.3 90.4 92.6 77.8 96 65.7C99.5 53.6 106.7 43.3 116.3 36.7C126.1 30 137.2 28 147.5 30.9C157.9 33.9 166.2 41.4 171 52.3C175.7 62.9 176.4 75.5 173 87.6C166.8 109.2 149.1 123.7 130.8 123.7ZM138.1 35.2C131.7 35.2 125.3 37.3 119.4 41.3C110.8 47.1 104.4 56.4 101.3 67.2C98.2 78.1 98.8 89.3 103 98.8C107.1 108.1 114.2 114.6 123 117.1C125.6 117.8 128.2 118.2 130.9 118.2C146.8 118.2 162.3 105.3 167.8 86.1C170.9 75.2 170.3 64 166.1 54.5C162 45.2 154.9 38.7 146.1 36.2C143.4 35.6 140.7 35.2 138.1 35.2Z" fill="#231F20"/>
<path d="M152.418 75.1554C155.431 64.5859 150.725 53.9805 141.908 51.4676C133.092 48.9547 123.502 55.4858 120.49 66.0553C117.477 76.6249 122.182 87.2303 130.999 89.7432C139.816 92.2562 149.406 85.725 152.418 75.1554Z" fill="#231F20"/>
<path d="M147.666 60.8839C149.013 56.1568 146.274 51.2326 141.547 49.8853C136.82 48.538 131.895 51.2779 130.548 56.0049C129.201 60.732 131.941 65.6562 136.668 67.0035C141.395 68.3508 146.319 65.611 147.666 60.8839Z" fill="white"/>
<path d="M167.3 94.9C158.5 113.9 139.6 124.8 122.2 119.8C105.7 115.1 95.6 97.8 96.6 78.4C128.6 77.3 153 87 167.3 94.9Z" fill="white"/>
<path d="M130.8 123.7C127.7 123.7 124.5 123.3 121.5 122.4C104.2 117.5 92.9 99.3 94 78.2L94.1 75.7L96.6 75.5999C128.9 74.5999 153.7 84.2 168.7 92.5L170.9 93.7L169.8 96C161.9 113.2 146.4 123.7 130.8 123.7ZM99.3 81C99.3 98.4 108.8 113.1 122.9 117.1C138.1 121.4 154.9 112.6 163.7 96C149.5 88.7 127.5 80.6 99.3 81Z" fill="#231F20"/>
<path d="M167.6 12.4C167.6 12.4 136.4 26.1 114.6 0.799988C114.6 0.799988 113.9 9.69999 115 12.8C116.1 16 140.1 37.4 167.6 12.4Z" fill="#231F20"/>
<path d="M19.8 11.4C19.8 11.4 50.7 25.9 73.1 1.20001C73.1 1.20001 73.6 10.1 72.4 13.2C71.2 16.3 46.7 37.1 19.8 11.4Z" fill="#231F20"/>
</svg>
