<svg width="162" height="89" viewBox="0 0 162 89" fill="none" xmlns="http://www.w3.org/2000/svg">
<path d="M11.5 16C6.60002 23.3 3.70001 32.4 3.70001 42.4C3.70001 66.2 20.4 85.6 41 85.6C61.6 85.6 78.3 66.3 78.3 42.4C78.3 41.4 78.3 40.3 78.2 39.3C51 38.9 25.7 25.3 11.5 16Z" fill="white"/>
<path d="M41 88.3C18.9 88.3 1 67.7 1 42.4C1 32.2 3.8 22.6 9.2 14.5L10.7 12.2L13 13.7C25.7 22 51.2 36.1 78.2 36.5H80.7L80.9 39C81 40.2 81 41.3 81 42.3C81.1 67.7 63.1 88.3 41 88.3ZM12.4 19.8C8.49999 26.5 6.5 34.2 6.5 42.4C6.5 64.7 22 82.8 41 82.8C60 82.8 75.5 64.7 75.5 42.4C75.5 42.3 75.5 42.1 75.5 42C50.8 40.8 28 29.7 12.4 19.8Z" fill="#231F20"/>
<path d="M36.6 29C31.5 32.4 28 38.9 28 46.4C28 57.4 35.4 66.3 44.6 66.3C53.8 66.3 61.2 57.4 61.2 46.4C61.2 42.7 60.4 39.3 58.9 36.3C51.1 34.1 42 31 36.6 29Z" fill="#231F20"/>
<path d="M79.7 39.3C79.6 40.3 79.6 41.3 79.6 42.4C79.6 66.2 96.3 85.6 116.9 85.6C137.5 85.6 154.2 66.3 154.2 42.4C154.2 32.5 151.3 23.3 146.4 16C132.1 26.6 108.8 39.3 79.7 39.3Z" fill="white"/>
<path d="M116.9 88.3C94.8 88.3 76.9 67.7 76.9 42.4C76.9 41.4 76.9 40.4 77 39.2L77.2 36.6H79.8C108.1 36.6 130.8 24.2 144.9 13.8L147.2 12.1L148.8 14.5C154.2 22.6 157 32.2 157 42.4C156.9 67.7 138.9 88.3 116.9 88.3ZM82.3 42C82.3 42.1 82.3 42.2 82.3 42.4C82.3 64.7 97.8 82.8 116.8 82.8C135.8 82.8 151.3 64.7 151.3 42.4C151.3 34.3 149.3 26.6 145.5 20C131.2 30.1 109.4 41.3 82.3 42Z" fill="#231F20"/>
<path d="M160.2 0.299988C159.9 0.699988 127.8 36.6 79.6 36.6C42.2 36.6 8.09996 10.7 1.69996 5.59998C-0.200038 7.99998 0.199962 11.5 2.69996 13.3C15 22.3 45.9 42.2 79.6 42.2C120.8 42.2 150.1 17.9 160.3 8C162.5 5.8 162.4 2.29999 160.2 0.299988Z" fill="#231F20"/>
<path d="M34.2 46.2C38.0107 46.2 41.1 43.1108 41.1 39.3C41.1 35.4892 38.0107 32.4 34.2 32.4C30.3892 32.4 27.3 35.4892 27.3 39.3C27.3 43.1108 30.3892 46.2 34.2 46.2Z" fill="white"/>
<path d="M126.6 27.9C118.8 30.8 107.8 34.3 101.5 36.3C100.7 38.7 100.2 41.2 100.2 44C100.2 55 107.6 63.9 116.8 63.9C126 63.9 133.4 55 133.4 44C133.5 37.4 130.8 31.5 126.6 27.9Z" fill="#231F20"/>
<path d="M126.6 45.9C130.411 45.9 133.5 42.8108 133.5 39C133.5 35.1892 130.411 32.1 126.6 32.1C122.789 32.1 119.7 35.1892 119.7 39C119.7 42.8108 122.789 45.9 126.6 45.9Z" fill="white"/>
</svg>
